<?xml version="1.0" encoding="UTF-8"?>
<svg width="96px" height="96px" enable-background="new 0 0 96 96" version="1.1" viewBox="0 0 96 96" xmlns="http://www.w3.org/2000/svg"><style/><defs><linearGradient id="a" x1="49.026" x2="49.246" y1="92.143" y2="5.4163" gradientUnits="userSpaceOnUse"><stop stop-color="#33150b" offset="0"/><stop stop-color="#9c3f27" offset="1"/></linearGradient></defs><path d="m88 48.522c-0.11326 10.299-0.85563 21.623-7.7482 29.889-6.9742 8.0115-18.18 9.6496-28.21 10.042-10.557 0.17719-21.921 0.01925-31.215-5.6597-8.5982-5.2936-11.667-15.73-12.443-25.227-0.70115-10.793-0.85088-22.115 3.2792-32.306 3.1826-8.2109 11.164-13.477 19.563-15.157 10.326-2.1022 21.081-2.0706 31.471-0.42933 8.5082 1.3747 17.081 5.8452 20.875 13.951 3.8005 7.6735 4.3603 16.479 4.4287 24.896z" enable-background="new    " opacity=".28526"/><path d="m88 47.522c-0.04869 10.468-0.94916 21.964-8.0782 30.26-7.1919 7.748-18.349 9.4281-28.41 9.6802-11.281 0.21719-23.648-0.16281-32.994-7.3299-8.0912-6.8738-10.189-18.089-10.383-28.193-0.43721-11.443-0.00238-23.945 6.9698-33.576 6.6723-8.1246 17.748-10.403 27.756-10.699 10.669-0.48277 21.978-0.039287 31.585 5.1137 7.3819 4.3708 11.517 12.613 12.565 20.921 0.77064 4.564 0.94316 9.2027 0.98964 13.823z" fill="url(#a)"/><path d="m48 7.522c-10.299 0.11307-21.623 0.8571-29.888 7.7503-8.0108 6.9742-9.6504 18.179-10.043 28.209-0.17723 10.557-0.019052 21.922 5.6603 31.215 5.2939 8.5979 15.73 11.666 25.227 12.443 10.794 0.70093 22.116 0.85095 32.308-3.2788 8.2109-3.182 13.476-11.164 15.155-19.563 2.1012-10.326 2.0699-21.08 0.429-31.47-1.3744-8.508-5.8442-17.081-13.95-20.875-7.6739-3.8013-16.48-4.3613-24.898-4.4297zm0 79c-10.066-0.1211-21.137-0.75114-29.247-7.4634-7.8182-6.813-9.3059-17.786-9.6876-27.563-0.14945-10.592-0.081583-22.073 5.9005-31.275 5.5459-8.2788 15.98-10.788 25.334-11.432 10.478-0.50885 21.504-0.66492 31.307 3.6064 7.9694 3.345 12.655 11.449 14.095 19.67 1.786 10.182 1.786 20.731 0 30.913-1.4405 8.2207-6.1256 16.325-14.095 19.67-7.3644 3.3284-15.642 3.8118-23.608 3.8737z" enable-background="new    " fill="#943d26" opacity=".11218"/><path d="m27.756 53.159c-1.9958 0.45544-0.47979 2.403 0.86564 1.9922h43.889c1.9958-0.45544 0.4798-2.403-0.86564-1.9922h-43.889zm0 3.7719c-1.9735 0.46286-0.47086 2.3977 0.86564 1.9889h36.561v5.5316c0.94961-0.54896 1.8992-1.0979 2.8488-1.6469 0.94961 0.54896 1.8992 1.0979 2.8488 1.6469v-5.5316c0.94847-0.0799 2.4069 0.37303 2.6133-0.99443-0.23614-1.3939-1.7346-0.90289-2.7143-0.99443h-43.023z" fill="#ff6740"/><path d="m74.503 36.784h-7.4851v4.1497h7.4851v-4.1497z" fill="#272b30"/><path d="m66.113 21.715c-6.9684 1.0803-13.287 5.544-16.685 11.711-9.6286-5.511-22.768-1.9132-28.624 7.2815-2.908 4.2276-3.8642 9.4414-3.6162 14.492-0.07644 3.4924-0.19975 6.9682 2.9511 9.8349 3.387 3.303 7.0013 2.6252 10.752 2.6402 3.3378 0.01092 6.6776-0.02195 10.014 0.01663 4.2197 0.22733 2.0695 6.203 6.0882 6.5792 6.4711-1.218 2.3998-10.265-1.6548-11.928-2.7294-1.9998-7.7876-1.1752-11.781-1.3483-4.753 0.02596-5.7879 0.64504-8.1133-1.3021-3.5317-3.3708-1.204-9.4556 5.1365-8.6223h42.597c1.3021-0.05487 2.0993-0.85402 2.3885-1.6207 0.28918-0.76674 0.17761-0.57199 0.43867-0.98694 0.70973-1.1281 1.2112-0.54228 2.3591-2.7085 0.62385-1.4648 0.47434-3.0385 0.14079-3.75-0.05736-0.08073-0.46564-0.37856-0.65642-0.6245-0.05065-0.06529-0.22819-0.23089-0.28062-0.29288-1.4933-1.7652-2.3686-3.4516-2.574-5.7414-1.525-3.7984-7.9041-5.6651-9.6487-6.7601-0.73404-2.4116 0.32326-4.675 1.4449-6.3522-0.04328-0.33049-0.37415-0.52804-0.67782-0.51753zm3.6391 16.572c0.45323-0.11331 1.3138-0.11874 1.9295 0.05861 1.3083 0.37683 1.5777 0.65288 1.5489 1.1129-0.01507 0.24107-0.32216 0.7411-0.95128 0.48705-1.4522-0.85441-2.8807-0.37368-3.466-0.0092-0.13008 0.081-0.57603 0.13767-0.79428-0.21215-0.1734-0.27795-0.17264-0.62882 0.21245-0.89598 0.35724-0.24785 1.1327-0.4801 1.5207-0.54128 0.38793-0.06119 4e-6 1.1e-5 4e-6 1.1e-5z" fill="#e6e6e6"/><path d="m49.473 33.34c3.0816-5.6172 8.8175-9.9605 15.115-11.336 0.63-0.13758 1.5426-0.40754 1.8548-0.23189 0.69554 0.43999 0.30528 0.7746-0.02667 1.5301-0.27841 0.63364-0.3391 0.76543-0.51622 1.235-0.29191 1.0112-0.64591 2.3814-0.55524 4.0469 0.0016 0.02851 1.0308 0.1006 2.3393 0.75018 2.2846 0.91127 4.3978 2.2632 6.1158 4.0234-0.3794 1.7758-1.1711 3.5109-2.2526 4.9696-0.7459-0.15988-1.4555-0.26468-3.1552 0.43832-0.3437 0.14215-0.50511 0.46061-0.46917 0.6897 0.04342 0.27679 0.2288 0.52218 0.54057 0.51802 0.31131-0.0042 0.47497-0.18194 1.0005-0.33323 0.31274-0.09003 0.5974-0.15572 0.82199-0.17204 0.09536-0.0069 0.26705-0.0076 0.36392 0.0058-3.0784 3.2787-8.196 4.7192-12.496 3.3846-4.3654-1.2744-7.7931-5.0762-8.6807-9.5188z" fill="#ff6740"/><path d="m75.234 45.184c-3.5441-1.0547-7.3438-1.6179-11.028-1.0384-0.7271 0.11266-1.4358 0.30359-2.1471 0.48756 4.1627-1.882 9.1121-1.2956 13.175 0.5508zm-0.4879 1.02c-3.6911-0.50973-7.5786-0.51788-11.159 0.64621-0.67093 0.20322-1.3067 0.49599-1.9518 0.76649 3.3691-2.1882 7.5977-2.5244 11.468-1.8207zm-0.0765 1.1883c-3.6983 0.27802-7.4307 1.1258-10.666 2.9853-0.63811 0.36633-1.233 0.79631-1.8306 1.2239 3.2125-3.2475 8.0415-4.4774 12.497-4.2092z" fill="#272b30"/><path d="m78.413 41.894-0.544-0.51c-0.8521 0.47938-1.0583 1.7484-0.40181 2.4729 0.31132 0.37092 0.79332 0.58941 1.2773 0.5803 0.11903-0.66948 0.07478-1.3643-0.0908-2.0221-0.0605-0.14674-0.05445-0.34323-0.16774-0.45934-0.02433-0.02059-0.04865-0.04116-0.07296-0.06174z" fill="#f27baa"/><path d="m64.776 29.43c0 0.0782 0 0.1564 0.0034 0.2346a17.694 17.694 0 0 0-5.3822 3.4289 9.4452 9.4452 0 0 1 7.3865-10.591 12.893 12.893 0 0 0-2.006 6.9275z" fill="#fff"/><path d="m47.472 63.846-0.6868-0.612c-2.4335 0.48248-4.5659 2.2305-5.5165 4.522 1.4886 0.31358 2.6227 1.7672 2.5602 3.2878-0.05132 2.367 2.817 4.056 4.857 2.8375 1.4278-0.69739 1.8944-2.3621 1.6993-3.8246-0.18588-2.33-1.2408-4.5795-2.9132-6.2107z" fill="#ff6740"/></svg>
